<svg id="Login_image_Vector" xmlns="http://www.w3.org/2000/svg" xmlns:xlink="http://www.w3.org/1999/xlink" width="398" height="339" viewBox="0 0 398 339">
  <defs>
    <linearGradient id="linear-gradient" x1="0.353" y1="0.92" x2="0.452" y2="0.412" gradientUnits="objectBoundingBox">
      <stop offset="0" stop-color="#006838"/>
      <stop offset="1" stop-color="#64b95b"/>
    </linearGradient>
    <linearGradient id="linear-gradient-5" x1="0.173" y1="0.807" x2="0.253" y2="0.207" gradientUnits="objectBoundingBox">
      <stop offset="0" stop-color="#006838"/>
      <stop offset="1" stop-color="#47e51d"/>
    </linearGradient>
    <linearGradient id="linear-gradient-7" x1="0.496" y1="0.984" x2="0.528" y2="0.418" xlink:href="#linear-gradient-5"/>
    <linearGradient id="linear-gradient-8" x1="-0.001" y1="0.5" x2="1" y2="0.5" gradientUnits="objectBoundingBox">
      <stop offset="0" stop-color="#700d2a"/>
      <stop offset="0.564" stop-color="#fc4f19"/>
      <stop offset="1" stop-color="#f7a458"/>
    </linearGradient>
    <linearGradient id="linear-gradient-10" x1="0.5" y1="0.028" x2="0.5" y2="0.957" gradientUnits="objectBoundingBox">
      <stop offset="0" stop-color="#06587b"/>
      <stop offset="1" stop-color="#0d1b5a"/>
    </linearGradient>
    <linearGradient id="linear-gradient-11" x1="0.5" x2="0.5" y2="1" gradientUnits="objectBoundingBox">
      <stop offset="0" stop-color="#f2f2f2"/>
      <stop offset="1" stop-color="#f2f2f2"/>
    </linearGradient>
    <linearGradient id="linear-gradient-13" x1="0.5" x2="0.5" y2="1" gradientUnits="objectBoundingBox">
      <stop offset="0" stop-color="#06567a"/>
      <stop offset="1" stop-color="#0b245e"/>
      <stop offset="1" stop-color="#032b3d"/>
    </linearGradient>
    <linearGradient id="linear-gradient-14" x1="-0.003" y1="0.502" x2="0.997" y2="0.502" gradientUnits="objectBoundingBox">
      <stop offset="0" stop-color="#23538c"/>
      <stop offset="1" stop-color="#18409d"/>
    </linearGradient>
    <linearGradient id="linear-gradient-15" x1="0.004" y1="0.5" x2="1.001" y2="0.5" gradientUnits="objectBoundingBox">
      <stop offset="0" stop-color="#4370d9"/>
      <stop offset="1" stop-color="#18409d"/>
    </linearGradient>
    <linearGradient id="linear-gradient-16" x1="0.011" y1="0.501" x2="1" y2="0.501" gradientUnits="objectBoundingBox">
      <stop offset="0" stop-color="#23538c"/>
      <stop offset="1" stop-color="#230482"/>
    </linearGradient>
    <linearGradient id="linear-gradient-17" x1="0" y1="0.501" x2="0.999" y2="0.501" xlink:href="#linear-gradient-16"/>
    <linearGradient id="linear-gradient-18" x1="0.5" y1="0.957" x2="0.5" y2="0.032" gradientUnits="objectBoundingBox">
      <stop offset="0" stop-color="#fc4f19"/>
      <stop offset="1" stop-color="#f7a458"/>
    </linearGradient>
  </defs>
  <g id="Group_175282" data-name="Group 175282" transform="translate(0 0)">
    <g id="Group_175287" data-name="Group 175287" transform="translate(0)">
      <g id="online" transform="translate(0)">
        <g id="OBJECTS">
          <g id="Group_175254" data-name="Group 175254">
            <g id="Group_175253" data-name="Group 175253">
              <path id="Path_89030" data-name="Path 89030" d="M374.685,193.22c-5.775-5.237-14.369-7.789-21.89-5.506a19.779,19.779,0,0,0-9,5.64c-3.492,6.177-1.88,14.1,1.612,20.278,5.1,9,14.5,15.981,24.978,16.518,3.626.269,7.655-.537,10.341-2.954,3.492-3.089,4.163-8.326,3.76-13.026C383.816,206.247,380.459,198.458,374.685,193.22Z" transform="translate(-22.881 -150.849)" fill="#fc4f19" opacity="0.3"/>
              <path id="Path_89031" data-name="Path 89031" d="M392.324,239.683a33.559,33.559,0,0,0-21.755.671c-11.281,4.029-29.947,13.7-38,34.916-11.952,31.424,6.715,69.563,24.71,77.084s52.374.806,62.849-20.95C429.658,311.664,429.255,251.366,392.324,239.683Z" transform="translate(-27.36 -133.431)" fill="#fc4f19" opacity="0.3"/>
              <g id="Group_175252" data-name="Group 175252">
                <path id="Path_89039" data-name="Path 89039" d="M374.7,347.786c-9.37-43.329,51.132-73.511,22.755-118.718-31.322-49.9-88.21-74.048-146.3-68.146-14.59,1.476-28.377,4.427-39.889,8.719-40.959,15.695-74.289,48.024-90.218,88.938C109,289.7,103.514,323.372,116.364,355.03c5.622,13.817,17.669,25.219,21.417,39.439,5.488,20.524.134,43.195,7.362,63.316,10.708,29.914,46.581,36.085,74.021,30.451,21.684-4.427,41.629-18.109,63.848-19.853,25.7-2.146,44.975,12.073,67.061,22,35.337,15.829,90.753,12.61,102.934-31.926a54.314,54.314,0,0,0-11.913-49.768C422.221,387.627,381.262,378.505,374.7,347.786Z" transform="translate(-101.601 -160.049)" fill="#fc4f19" opacity="0.3"/>
                <g id="Group_175251" data-name="Group 175251" transform="translate(0 40.894)">
                  <g id="Group_175250" data-name="Group 175250">
                    <g id="Group_175220" data-name="Group 175220" transform="translate(0 92.814)">
                      <path id="Path_89040" data-name="Path 89040" d="M138.42,301.117c-7.117-2.82.806,10.743-.537,9.266s-15.847-28.47-20.547-23.635c-4.566,4.835,3.357,12.623,2.283,12.086s-15.712-17.458-16.115-8.729c-.537,8.729,13.564,16.921,13.564,16.921s-12.355-2.82-6.983,2.552,17.727,9,17.727,9-12.758-1.343-7.118,3.089c5.64,4.3,17.727,6.983,17.727,6.983s-11.549.269-5.64,2.283,23.635,7.117,23.635,7.117S145.672,303.937,138.42,301.117Z" transform="translate(-103.489 -250.507)" fill="url(#linear-gradient)"/>
                      <path id="Path_89041" data-name="Path 89041" d="M174.327,308.441c-2.552,1.074,1.343-2.552,2.014-11.549s-15.175,16.384-16.921,17.727.537-1.343-1.074-8.46C156.869,299.04,142.5,335.7,142.5,335.7s26.993-7.386,32.364-9.266c5.372-1.746-2.552-4.3-2.552-4.3s12.086.806,18.935-2.014c6.983-2.82-7.386-4.835-9-6.177-1.477-1.343,7.118-1.746,13.026-12.355S176.879,307.366,174.327,308.441Z" transform="translate(-90.111 -247.49)" fill="url(#linear-gradient)"/>
                      <path id="Path_89042" data-name="Path 89042" d="M175.234,294.749c-2.283,1.074,6.715-10.475,7.386-18.264.806-7.655-16.115,16.115-17.727,19.2-1.477,3.089,1.343-5.372-1.074-13.026-2.283-7.655-9.8,22.293-11.012,25.113-1.343,2.82-.269-2.82-3.626-10.743s-6.446,44.182-6.177,45.391c0,0,12.086-11.28,15.712-18s-1.477-5.372-1.477-5.372,8.46-4.163,13.026-7.923c4.566-3.895-4.3-6.177-4.163-6.983.269-.806,14.1-5.372,18.935-11.012C190.006,287.5,177.517,293.675,175.234,294.749Z" transform="translate(-89.944 -254.345)" fill="url(#linear-gradient)"/>
                      <path id="Path_89043" data-name="Path 89043" d="M146.132,315.153s2.82-9,3.357-15.444-5.909-2.014-5.909-2.014,1.477-11.818-.537-20.547-3.357,8.192-4.163,9.266-2.014-4.3-9.266-12.623c-7.118-8.192,5.1,18.935,5.909,22.83s-1.477-2.014-9.8-4.566c-8.192-2.552,11.012,25.918,11.012,27.127,0,1.343-1.343-2.014-7.655-4.163-6.446-2.014,19.2,25.65,20.278,27.664,0,0,2.014-18.264,2.82-25.381C153.115,310.319,146.132,315.153,146.132,315.153Z" transform="translate(-96.563 -255.277)" fill="url(#linear-gradient)"/>
                      <path id="Path_89044" data-name="Path 89044" d="M140.6,295.4Z" transform="translate(-90.763 -247.341)" fill="url(#linear-gradient-5)"/>
                      <path id="Path_89045" data-name="Path 89045" d="M152.306,275.307s-.806-10.206-6.177-15.175c-5.372-4.835-1.746,25.65-2.014,27.127s-1.343-3.626-7.118-5.64,4.835,24.173,5.64,25.784c.134.269.134.4,0,.134V307.4a7.856,7.856,0,0,0-6.312-2.954c-5.64-.269,9.266,42.034,9.266,42.839,0,0,9.938-11.281,11.012-16.384s-5.909-1.746-5.909-1.746,5.372-4.834,9.266-15.443c3.894-10.475-7.923-2.82-8.192-3.626s8.729-6.983,11.012-19.741c1.746-9.8-4.969-5.1-8.326-2.283-1.074.94-1.746,1.477-1.746,1.477a17.855,17.855,0,0,1,1.746-1.477,34.258,34.258,0,0,0,10.072-19.741C166.138,254.9,152.306,275.307,152.306,275.307Z" transform="translate(-92.666 -259.613)" fill="url(#linear-gradient)"/>
                      <path id="Path_89046" data-name="Path 89046" d="M149.746,280.9A17.852,17.852,0,0,0,148,282.377S148.671,281.84,149.746,280.9Z" transform="translate(-88.225 -252.314)" fill="url(#linear-gradient-7)"/>
                      <g id="Group_175219" data-name="Group 175219" transform="translate(25.396 83.646)">
                        <path id="Path_89047" data-name="Path 89047" d="M134.286,377.654h31.022l7.386-49.554H126.9Z" transform="translate(-120.857 -319.774)" fill="url(#linear-gradient-8)"/>
                        <path id="Path_89048" data-name="Path 89048" d="M178.131,321.9H124.414a2.065,2.065,0,0,0-2.014,2.014v6.446a2.065,2.065,0,0,0,2.014,2.014h53.717a2.065,2.065,0,0,0,2.014-2.014v-6.446A1.978,1.978,0,0,0,178.131,321.9Z" transform="translate(-122.4 -321.9)" fill="url(#linear-gradient-8)"/>
                      </g>
                    </g>
                    <g id="Group_175236" data-name="Group 175236" transform="translate(303.458 51.733)">
                      <g id="Group_175235" data-name="Group 175235" transform="translate(1.074)">
                        <g id="Group_175234" data-name="Group 175234" transform="translate(11.834)">
                          <g id="Group_175230" data-name="Group 175230" transform="translate(0.406)">
                            <path id="Path_89049" data-name="Path 89049" d="M393.643,234.229l-16.115-5.1a2.827,2.827,0,0,0-3.492,1.88L340.329,336.292a2.754,2.754,0,0,0,1.746,3.492l16.652,5.506a2.633,2.633,0,0,0,3.492-1.88l33.17-105.822A2.565,2.565,0,0,0,393.643,234.229Z" transform="translate(-340.214 -229.023)" fill="#84d2e6"/>
                            <path id="Path_89050" data-name="Path 89050" d="M374.037,231.006,340.329,336.292a2.754,2.754,0,0,0,1.746,3.492l8.863,2.954,35.453-110.791-9-2.82A2.869,2.869,0,0,0,374.037,231.006Z" transform="translate(-340.214 -229.023)" fill="#97deef"/>
                            <g id="Group_175229" data-name="Group 175229" transform="translate(4.763 10.123)">
                              <g id="Group_175221" data-name="Group 175221" transform="translate(25.516)">
                                <path id="Path_89051" data-name="Path 89051" d="M372.534,238.9l-6.983-2.283c-.269-.134-.537,0-.537.269-.134.269,0,.537.269.537l6.983,2.283c.268.134.537,0,.537-.269C372.937,239.3,372.8,239.031,372.534,238.9Z" transform="translate(-362.006 -236.561)" fill="#fff"/>
                                <path id="Path_89052" data-name="Path 89052" d="M368.811,239.522l-3.76-1.209c-.269-.134-.537,0-.537.269-.134.269,0,.537.269.537l3.76,1.209c.269.134.537,0,.537-.269A1.02,1.02,0,0,0,368.811,239.522Z" transform="translate(-362.178 -235.978)" fill="#fff"/>
                                <path id="Path_89053" data-name="Path 89053" d="M368.211,241.222l-3.76-1.209c-.269-.134-.537,0-.537.269-.134.269,0,.537.268.537l3.76,1.209c.269.134.537,0,.537-.269S368.479,241.356,368.211,241.222Z" transform="translate(-362.384 -235.395)" fill="#fff"/>
                                <path id="Path_89054" data-name="Path 89054" d="M367.611,243.022l-3.76-1.209c-.269-.134-.537,0-.537.269-.134.269,0,.537.269.537l3.76,1.209c.269.134.537,0,.537-.269C368.014,243.425,367.879,243.156,367.611,243.022Z" transform="translate(-362.589 -234.778)" fill="#fff"/>
                                <path id="Path_89055" data-name="Path 89055" d="M367.111,244.622l-3.76-1.209c-.269-.134-.537,0-.537.269-.134.269,0,.537.269.537l3.76,1.209c.269.134.537,0,.537-.269C367.514,244.891,367.379,244.756,367.111,244.622Z" transform="translate(-362.761 -234.229)" fill="#fff"/>
                              </g>
                              <g id="Group_175222" data-name="Group 175222" transform="translate(21.89 11.415)">
                                <path id="Path_89056" data-name="Path 89056" d="M369.834,247.4l-6.983-2.283c-.269-.134-.537,0-.537.269-.134.269,0,.537.269.537l6.983,2.283c.269.134.537,0,.537-.269C370.237,247.8,369.968,247.531,369.834,247.4Z" transform="translate(-359.306 -245.061)" fill="#fff"/>
                                <path id="Path_89057" data-name="Path 89057" d="M366.011,248.022l-3.76-1.209c-.269-.134-.537,0-.537.269-.134.269,0,.537.269.537l3.76,1.209c.268.134.537,0,.537-.269C366.414,248.425,366.279,248.156,366.011,248.022Z" transform="translate(-359.512 -244.478)" fill="#fff"/>
                                <path id="Path_89058" data-name="Path 89058" d="M365.511,249.722l-3.76-1.209c-.269-.134-.537,0-.537.269-.134.269,0,.537.269.537l3.76,1.209c.269.134.537,0,.537-.269C365.914,250.125,365.779,249.856,365.511,249.722Z" transform="translate(-359.684 -243.895)" fill="#fff"/>
                                <path id="Path_89059" data-name="Path 89059" d="M364.911,251.522l-3.76-1.209c-.269-.134-.537,0-.537.269-.134.269,0,.537.269.537l3.76,1.209c.269.134.537,0,.537-.269C365.314,251.925,365.179,251.656,364.911,251.522Z" transform="translate(-359.889 -243.278)" fill="#fff"/>
                                <path id="Path_89060" data-name="Path 89060" d="M364.411,253.122l-3.76-1.209c-.269-.134-.537,0-.537.269-.134.269,0,.537.269.537l3.76,1.209c.269.134.537,0,.537-.269C364.814,253.391,364.679,253.122,364.411,253.122Z" transform="translate(-360.061 -242.729)" fill="#fff"/>
                              </g>
                              <g id="Group_175223" data-name="Group 175223" transform="translate(18.264 22.83)">
                                <path id="Path_89061" data-name="Path 89061" d="M367.02,255.9l-6.983-2.283c-.269-.134-.537,0-.537.269s0,.537.269.537l6.983,2.283c.269.134.537,0,.537-.269C367.423,256.3,367.289,256.031,367.02,255.9Z" transform="translate(-356.627 -253.561)" fill="#fff"/>
                                <path id="Path_89062" data-name="Path 89062" d="M363.311,256.522l-3.76-1.209c-.269-.134-.537,0-.537.269-.134.269,0,.537.269.537l3.76,1.209c.269.134.537,0,.537-.269C363.714,256.925,363.579,256.656,363.311,256.522Z" transform="translate(-356.812 -252.978)" fill="#fff"/>
                                <path id="Path_89063" data-name="Path 89063" d="M362.811,258.222l-3.76-1.209c-.269-.134-.537,0-.537.269-.134.269,0,.537.268.537l3.76,1.209c.269.134.537,0,.537-.269C363.214,258.625,363.079,258.356,362.811,258.222Z" transform="translate(-356.984 -252.395)" fill="#fff"/>
                                <path id="Path_89064" data-name="Path 89064" d="M362.211,260.022l-3.76-1.209c-.269-.134-.537,0-.537.269-.134.269,0,.537.269.537l3.76,1.209c.269.134.537,0,.537-.269C362.614,260.291,362.479,260.022,362.211,260.022Z" transform="translate(-357.189 -251.778)" fill="#fff"/>
                                <path id="Path_89065" data-name="Path 89065" d="M361.711,261.622l-3.76-1.209c-.269-.134-.537,0-.537.269-.134.269,0,.537.269.537l3.76,1.209c.269.134.537,0,.537-.269S361.979,261.622,361.711,261.622Z" transform="translate(-357.361 -251.229)" fill="#fff"/>
                              </g>
                              <g id="Group_175224" data-name="Group 175224" transform="translate(14.638 34.244)">
                                <path id="Path_89066" data-name="Path 89066" d="M364.334,264.4l-6.983-2.283c-.269-.134-.537,0-.537.269-.134.269,0,.537.269.537l6.983,2.283c.269.134.537,0,.537-.269C364.737,264.665,364.6,264.4,364.334,264.4Z" transform="translate(-353.941 -262.061)" fill="#fff"/>
                                <path id="Path_89067" data-name="Path 89067" d="M360.611,265.022l-3.76-1.209c-.269-.134-.537,0-.537.269-.134.269,0,.537.269.537l3.76,1.209c.269.134.537,0,.537-.269C361.014,265.425,360.879,265.156,360.611,265.022Z" transform="translate(-354.112 -261.478)" fill="#fff"/>
                                <path id="Path_89068" data-name="Path 89068" d="M360.111,266.722l-3.76-1.209c-.269-.134-.537,0-.537.269-.134.269,0,.537.269.537l3.76,1.209c.269.134.537,0,.537-.269S360.245,266.722,360.111,266.722Z" transform="translate(-354.284 -260.895)" fill="#fff"/>
                                <path id="Path_89069" data-name="Path 89069" d="M359.511,268.522l-3.76-1.209c-.269-.134-.537,0-.537.269-.134.269,0,.537.269.537l3.76,1.209c.269.134.537,0,.537-.269C359.914,268.791,359.779,268.522,359.511,268.522Z" transform="translate(-354.489 -260.278)" fill="#fff"/>
                                <path id="Path_89070" data-name="Path 89070" d="M359.011,270.122l-3.76-1.209c-.269-.134-.537,0-.537.269-.134.269,0,.537.269.537l3.76,1.209c.269.134.537,0,.537-.269S359.279,270.122,359.011,270.122Z" transform="translate(-354.661 -259.729)" fill="#fff"/>
                              </g>
                              <g id="Group_175225" data-name="Group 175225" transform="translate(11.012 45.659)">
                                <path id="Path_89071" data-name="Path 89071" d="M361.634,272.9l-6.983-2.283c-.269-.134-.537,0-.537.269-.134.269,0,.537.269.537l6.983,2.283c.269.134.537,0,.537-.269C362.037,273.165,361.9,272.9,361.634,272.9Z" transform="translate(-351.241 -270.561)" fill="#fff"/>
                                <path id="Path_89072" data-name="Path 89072" d="M357.911,273.522l-3.76-1.209c-.269-.134-.537,0-.537.269-.134.269,0,.537.269.537l3.76,1.209c.269.134.537,0,.537-.269S358.179,273.656,357.911,273.522Z" transform="translate(-351.412 -269.978)" fill="#fff"/>
                                <path id="Path_89073" data-name="Path 89073" d="M357.311,275.222l-3.76-1.209c-.269-.134-.537,0-.537.269-.134.269,0,.537.269.537l3.76,1.209c.269.134.537,0,.537-.269C357.714,275.491,357.579,275.222,357.311,275.222Z" transform="translate(-351.618 -269.395)" fill="#fff"/>
                                <path id="Path_89074" data-name="Path 89074" d="M356.811,277.022l-3.76-1.209c-.269-.134-.537,0-.537.269-.134.269,0,.537.269.537l3.76,1.209c.269.134.537,0,.537-.269S356.945,277.022,356.811,277.022Z" transform="translate(-351.789 -268.777)" fill="#fff"/>
                                <path id="Path_89075" data-name="Path 89075" d="M356.311,278.522l-3.76-1.209c-.269-.134-.537,0-.537.269-.134.269,0,.537.269.537l3.76,1.209c.269.134.537,0,.537-.269A1.019,1.019,0,0,0,356.311,278.522Z" transform="translate(-351.961 -268.263)" fill="#fff"/>
                              </g>
                              <g id="Group_175226" data-name="Group 175226" transform="translate(7.252 57.074)">
                                <path id="Path_89076" data-name="Path 89076" d="M358.92,281.4l-6.983-2.283c-.269-.134-.537,0-.537.269s0,.537.269.537l6.983,2.283c.269.134.537,0,.537-.269C359.323,281.665,359.189,281.4,358.92,281.4Z" transform="translate(-348.393 -279.061)" fill="#fff"/>
                                <path id="Path_89077" data-name="Path 89077" d="M355.111,282.022l-3.76-1.209c-.269-.134-.537,0-.537.269-.134.269,0,.537.269.537l3.76,1.209c.269.134.537,0,.537-.269C355.514,282.291,355.379,282.022,355.111,282.022Z" transform="translate(-348.612 -278.478)" fill="#fff"/>
                                <path id="Path_89078" data-name="Path 89078" d="M354.611,283.722l-3.76-1.209c-.269-.134-.537,0-.537.269-.134.269,0,.537.269.537l3.76,1.209c.269.134.537,0,.537-.269C355.014,283.991,354.879,283.722,354.611,283.722Z" transform="translate(-348.784 -277.895)" fill="#fff"/>
                                <path id="Path_89079" data-name="Path 89079" d="M354.011,285.422l-3.76-1.209c-.269-.134-.537,0-.537.269-.134.269,0,.537.269.537l3.76,1.209c.268.134.537,0,.537-.269C354.414,285.825,354.279,285.556,354.011,285.422Z" transform="translate(-348.989 -277.312)" fill="#fff"/>
                                <path id="Path_89080" data-name="Path 89080" d="M353.511,287.022l-3.76-1.209c-.269-.134-.537,0-.537.269-.134.269,0,.537.269.537l3.76,1.209c.269.134.537,0,.537-.269C353.914,287.425,353.779,287.156,353.511,287.022Z" transform="translate(-349.161 -276.763)" fill="#fff"/>
                              </g>
                              <g id="Group_175227" data-name="Group 175227" transform="translate(3.626 68.489)">
                                <path id="Path_89081" data-name="Path 89081" d="M356.234,289.9l-6.983-2.283c-.269-.134-.537,0-.537.269-.134.269,0,.537.269.537l6.983,2.283c.269.134.537,0,.537-.269S356.368,289.9,356.234,289.9Z" transform="translate(-345.706 -287.561)" fill="#fff"/>
                                <path id="Path_89082" data-name="Path 89082" d="M352.411,290.522l-3.76-1.209c-.269-.134-.537,0-.537.269-.134.269,0,.537.269.537l3.76,1.209c.269.134.537,0,.537-.269C352.814,290.791,352.679,290.522,352.411,290.522Z" transform="translate(-345.912 -286.978)" fill="#fff"/>
                                <path id="Path_89083" data-name="Path 89083" d="M351.911,292.222l-3.76-1.209c-.269-.134-.537,0-.537.269-.134.269,0,.537.269.537l3.76,1.209c.269.134.537,0,.537-.269C352.314,292.491,352.179,292.222,351.911,292.222Z" transform="translate(-346.084 -286.395)" fill="#fff"/>
                                <path id="Path_89084" data-name="Path 89084" d="M351.311,293.922l-3.76-1.209c-.269-.134-.537,0-.537.269-.134.269,0,.537.269.537l3.76,1.209c.269.134.537,0,.537-.269C351.714,294.325,351.579,294.056,351.311,293.922Z" transform="translate(-346.289 -285.812)" fill="#fff"/>
                                <path id="Path_89085" data-name="Path 89085" d="M350.811,295.522l-3.76-1.209c-.269-.134-.537,0-.537.269-.134.269,0,.537.269.537l3.76,1.209c.268.134.537,0,.537-.269C351.214,295.925,351.079,295.656,350.811,295.522Z" transform="translate(-346.461 -285.263)" fill="#fff"/>
                              </g>
                              <g id="Group_175228" data-name="Group 175228" transform="translate(0 79.77)">
                                <path id="Path_89086" data-name="Path 89086" d="M353.434,298.3l-6.983-2.283c-.269-.134-.537,0-.537.269-.134.269,0,.537.269.537l6.983,2.283c.269.134.537,0,.537-.269C353.837,298.7,353.7,298.431,353.434,298.3Z" transform="translate(-343.041 -295.961)" fill="#fff"/>
                                <path id="Path_89087" data-name="Path 89087" d="M349.711,299.022l-3.76-1.209c-.269-.134-.537,0-.537.269-.134.269,0,.537.269.537l3.76,1.209c.269.134.537,0,.537-.269C350.114,299.291,349.979,299.022,349.711,299.022Z" transform="translate(-343.212 -295.343)" fill="#fff"/>
                                <path id="Path_89088" data-name="Path 89088" d="M349.211,300.622l-3.76-1.209c-.269-.134-.537,0-.537.269-.134.269,0,.537.269.537l3.76,1.209c.269.134.537,0,.537-.269C349.614,301.025,349.345,300.756,349.211,300.622Z" transform="translate(-343.384 -294.795)" fill="#fff"/>
                                <path id="Path_89089" data-name="Path 89089" d="M348.6,302.422l-3.76-1.209c-.269-.134-.537,0-.537.269s0,.537.269.537l3.76,1.209c.269.134.537,0,.537-.269C349,302.825,348.866,302.556,348.6,302.422Z" transform="translate(-343.576 -294.178)" fill="#fff"/>
                                <path id="Path_89090" data-name="Path 89090" d="M348.111,304.022l-3.76-1.209c-.269-.134-.537,0-.537.269-.134.269,0,.537.269.537l3.76,1.209c.269.134.537,0,.537-.269C348.514,304.425,348.379,304.156,348.111,304.022Z" transform="translate(-343.761 -293.629)" fill="#fff"/>
                              </g>
                            </g>
                          </g>
                          <g id="Group_175231" data-name="Group 175231" transform="translate(30.199 27.081)">
                            <path id="Path_89091" data-name="Path 89091" d="M375.78,249.607l-3.492-.4a1.956,1.956,0,0,0-2.149,1.746l-.94,9.669,7.386.672.94-9.669A1.846,1.846,0,0,0,375.78,249.607Z" transform="translate(-360.068 -249.189)" fill="#f6a60d"/>
                            <path id="Path_89092" data-name="Path 89092" d="M366.794,324.7l7.52-17.727L362.9,305.9Z" transform="translate(-362.228 -229.742)" fill="#a7a7a7"/>
                            <path id="Path_89093" data-name="Path 89093" d="M366.3,323.086l6.849-16.249-5.237-.537Z" transform="translate(-361.063 -229.604)" fill="#dbd8d5"/>
                            <path id="Path_89094" data-name="Path 89094" d="M366.8,321.172l6.177-14.369-4.7-.4Z" transform="translate(-360.891 -229.57)" fill="#7c7b79"/>
                            <path id="Path_89095" data-name="Path 89095" d="M378.984,257.209l-7.52-.806a1.9,1.9,0,0,0-2.149,1.88L363,322.207a1.9,1.9,0,0,0,1.88,2.149l7.52.806a1.9,1.9,0,0,0,2.149-1.88l6.312-63.923A2.171,2.171,0,0,0,378.984,257.209Z" transform="translate(-362.198 -246.72)" fill="#23538c"/>
                            <path id="Path_89096" data-name="Path 89096" d="M369.215,258.284,362.9,322.207a1.9,1.9,0,0,0,1.88,2.149l3.626.4,6.715-67.952-3.626-.4A1.953,1.953,0,0,0,369.215,258.284Z" transform="translate(-362.232 -246.72)" fill="#144270"/>
                            <path id="Path_89097" data-name="Path 89097" d="M383.155,261.911,367.309,260.3c-.269,0-.671.269-.671.537l-.537,5.909c0,.269.269.672.537.672l13.7,1.343a.614.614,0,0,1,.537.671l-1.209,12.086a.614.614,0,0,1-.671.537h-.269a.672.672,0,0,0-.672.806l1.88,6.446c.134.269.269.4.537.4s.671-.269.671-.537l2.014-20.144.671-6.446A.634.634,0,0,0,383.155,261.911Z" transform="translate(-361.131 -245.379)" fill="#f6a60d"/>
                            <path id="Path_89098" data-name="Path 89098" d="M365.971,320.792l1.343-3.357L365.3,317.3Z" transform="translate(-361.405 -225.832)" fill="#0e2142"/>
                            <path id="Path_89099" data-name="Path 89099" d="M374.889,304.774,363.34,303.7a.614.614,0,0,0-.671.537l-.269,3.357a.614.614,0,0,0,.537.671l11.549,1.074a.615.615,0,0,0,.672-.537l.269-3.357A.614.614,0,0,0,374.889,304.774Z" transform="translate(-362.4 -230.496)" fill="#0e2142"/>
                          </g>
                          <g id="Group_175233" data-name="Group 175233" transform="translate(0 37.801)">
                            <path id="Path_89100" data-name="Path 89100" d="M354.989,269.2,342.5,272.423l13.832,53.045a4.961,4.961,0,0,0,.94,1.88l8.326,9.535c.269.269.671.134.671-.134l2.552-12.355a5.767,5.767,0,0,0,0-2.149Z" transform="translate(-339.025 -253.047)" fill="#fcd7a3"/>
                            <path id="Path_89101" data-name="Path 89101" d="M360.623,320.835c.269.269.671.134.671-.134l.94-4.7-4.835,1.209Z" transform="translate(-333.915 -236.998)" fill="#0f2145"/>
                            <path id="Path_89102" data-name="Path 89102" d="M349.863,270l-4.163,1.074,13.832,53.18a2.085,2.085,0,0,0,4.029-1.074Z" transform="translate(-337.927 -252.772)" fill="#fff"/>
                            <g id="Group_175232" data-name="Group 175232" transform="translate(3.61 16.153)">
                              <path id="Path_89103" data-name="Path 89103" d="M352.863,269.2l-4.163,1.074,13.832,53.18a2.085,2.085,0,1,0,4.029-1.074Z" transform="translate(-340.508 -269.2)" fill="#f23436"/>
                              <path id="Path_89104" data-name="Path 89104" d="M346.763,270.8l-4.163,1.074,13.832,53.18a2.085,2.085,0,0,0,4.029-1.074Z" transform="translate(-342.6 -268.651)" fill="#f23436"/>
                            </g>
                            <path id="Path_89105" data-name="Path 89105" d="M347.282,257.344l-4.163,1.074a4.338,4.338,0,0,0-3.089,5.237l2.954,11.146,12.489-3.223-2.954-11.146A4.139,4.139,0,0,0,347.282,257.344Z" transform="translate(-339.912 -257.172)" fill="#fe6f71"/>
                            <rect id="Rectangle_991" data-name="Rectangle 991" width="5.506" height="12.892" transform="matrix(-0.254, -0.967, 0.967, -0.254, 3.828, 20.343)" fill="#0f2145"/>
                          </g>
                        </g>
                        <path id="Path_89106" data-name="Path 89106" d="M331.234,382.576a7.222,7.222,0,0,0,7.252,7.252H391.4a7.222,7.222,0,0,0,7.252-7.252V292.6H331.1v89.976Z" transform="translate(-331.1 -207.221)" fill="#18409d"/>
                        <path id="Path_89107" data-name="Path 89107" d="M356.8,389.828h25.918a7.222,7.222,0,0,0,7.252-7.252V292.6H356.8Z" transform="translate(-322.287 -207.221)" fill="#18409d"/>
                        <path id="Path_89108" data-name="Path 89108" d="M371.5,389.828h6.177a7.222,7.222,0,0,0,7.252-7.252V292.6H371.5Z" transform="translate(-317.246 -207.221)" fill="#18409d"/>
                      </g>
                      <path id="Path_89109" data-name="Path 89109" d="M399.058,291.3H331.509a1.2,1.2,0,0,0-1.209,1.209v4.969a1.2,1.2,0,0,0,1.209,1.209h67.549a1.2,1.2,0,0,0,1.209-1.209v-4.969A1.2,1.2,0,0,0,399.058,291.3Z" transform="translate(-330.3 -207.667)" fill="#f2f2f2"/>
                    </g>
                    <g id="Group_175237" data-name="Group 175237" transform="translate(79.593)">
                      <path id="Path_89110" data-name="Path 89110" d="M228.623,315.1,216,375.129H316.585L303.962,315.1Z" transform="translate(-145.631 -147.772)" fill="#ffebe5"/>
                      <path id="Path_89111" data-name="Path 89111" d="M394.986,190.5H173.538a9.915,9.915,0,0,0-9.938,9.938V364.408a9.915,9.915,0,0,0,9.938,9.938H394.986a9.915,9.915,0,0,0,9.938-9.938V200.3A10.065,10.065,0,0,0,394.986,190.5Z" transform="translate(-163.6 -190.5)" fill="url(#linear-gradient-10)"/>
                      <path id="Path_89112" data-name="Path 89112" d="M163.6,324.358a9.915,9.915,0,0,0,9.938,9.938H394.986a9.915,9.915,0,0,0,9.938-9.938V306.9H163.6Z" transform="translate(-163.6 -150.584)" fill="#fff"/>
                      <rect id="Rectangle_992" data-name="Rectangle 992" width="229.908" height="133.755" transform="translate(5.64 13.161)" fill="url(#linear-gradient-11)"/>
                      <path id="Path_89113" data-name="Path 89113" d="M397.709,334.055V200.3H167.8Z" transform="translate(-162.16 -187.139)" fill="url(#linear-gradient-11)"/>
                      <path id="Path_89114" data-name="Path 89114" d="M333.309,354.5H209.223a7.923,7.923,0,0,0,0,15.846H333.309a7.938,7.938,0,0,0,7.923-7.923A7.853,7.853,0,0,0,333.309,354.5Z" transform="translate(-150.672 -134.261)" fill="#ffebe5"/>
                    </g>
                    <g id="Group_175240" data-name="Group 175240" transform="translate(72.932 102.868)">
                      <g id="Group_175238" data-name="Group 175238">
                        <path id="Path_89115" data-name="Path 89115" d="M222.729,267.1H164.043A6.018,6.018,0,0,0,158,273.143v121a6.018,6.018,0,0,0,6.043,6.043h58.686a6.018,6.018,0,0,0,6.043-6.043v-121A6.1,6.1,0,0,0,222.729,267.1Z" transform="translate(-158 -267.1)" fill="url(#linear-gradient-13)"/>
                        <path id="Path_89172" data-name="Path 89172" d="M0,0H63.386V109.314H0Z" transform="translate(3.626 8.058)" fill="#f2f2f2"/>
                        <path id="Path_89116" data-name="Path 89116" d="M224.22,382.414V273.1H160.7Z" transform="translate(-157.074 -265.042)" fill="#f2f2f2"/>
                      </g>
                      <ellipse id="Ellipse_311" data-name="Ellipse 311" cx="19.043" cy="19.043" rx="19.043" ry="19.043" transform="translate(16.25 47.499)" fill="#fff"/>
                      <g id="Group_175239" data-name="Group 175239" transform="translate(26.48 54.057)">
                        <path id="Path_89117" data-name="Path 89117" d="M173.2,304.309v19.477l14.385-.162,3.556-2.182V301.4H176.109A2.9,2.9,0,0,0,173.2,304.309Z" transform="translate(-173.2 -301.4)" fill="#fc4f19"/>
                        <path id="Path_89118" data-name="Path 89118" d="M173.2,304.309v19.477h2.99V301.4h-.162A2.881,2.881,0,0,0,173.2,304.309Z" transform="translate(-173.2 -301.4)" fill="#fc4f19"/>
                        <path id="Path_89119" data-name="Path 89119" d="M173.3,328.544a2.345,2.345,0,0,0,2.344,2.344h15.6v-.323a2.027,2.027,0,0,1,0-4.041V326.2h-15.6A2.345,2.345,0,0,0,173.3,328.544Z" transform="translate(-173.219 -306.157)" fill="#f6a60d"/>
                        <path id="Path_89120" data-name="Path 89120" d="M173.6,328.62a2,2,0,0,0,2.02,2.02h15.6a2.027,2.027,0,0,1,0-4.041h-15.6A2.053,2.053,0,0,0,173.6,328.62Z" transform="translate(-173.277 -306.234)" fill="#fcfcd4"/>
                      </g>
                    </g>
                    <g id="Group_175246" data-name="Group 175246" transform="translate(142.929 184.208)">
                      <g id="Group_175241" data-name="Group 175241" transform="translate(0 37.259)">
                        <path id="Path_89121" data-name="Path 89121" d="M210.3,362.617a6.2,6.2,0,0,0,6.233,6.233h41.65V368a5.435,5.435,0,0,1-4.958-5.525,5.534,5.534,0,0,1,4.958-5.525v-.85h-41.65A6.54,6.54,0,0,0,210.3,362.617Z" transform="translate(-210.3 -356.1)" fill="#f6a60d"/>
                        <path id="Path_89122" data-name="Path 89122" d="M210.8,362.325a5.532,5.532,0,0,0,5.525,5.525h41.65a5.435,5.435,0,0,1-4.958-5.525,5.534,5.534,0,0,1,4.958-5.525h-41.65A5.532,5.532,0,0,0,210.8,362.325Z" transform="translate(-210.092 -355.808)" fill="#fcfcd4"/>
                      </g>
                      <g id="Group_175242" data-name="Group 175242" transform="translate(3.4 24.792)">
                        <path id="Path_89123" data-name="Path 89123" d="M212.7,353.817a6.2,6.2,0,0,0,6.233,6.233h41.65v-.85a5.434,5.434,0,0,1-4.958-5.525,5.534,5.534,0,0,1,4.958-5.525v-.85h-41.65A6.634,6.634,0,0,0,212.7,353.817Z" transform="translate(-212.7 -347.3)" fill="#fb6657"/>
                        <path id="Path_89124" data-name="Path 89124" d="M213.2,353.525a5.532,5.532,0,0,0,5.525,5.525h41.65a5.435,5.435,0,0,1-4.958-5.525A5.534,5.534,0,0,1,260.375,348h-41.65A5.626,5.626,0,0,0,213.2,353.525Z" transform="translate(-212.492 -347.008)" fill="#fcfcd4"/>
                      </g>
                      <g id="Group_175243" data-name="Group 175243" transform="translate(8.642 12.467)">
                        <path id="Path_89125" data-name="Path 89125" d="M216.4,344.975h0a6.2,6.2,0,0,0,6.233,6.233h41.65V350.5a5.434,5.434,0,0,1-4.958-5.525,5.534,5.534,0,0,1,4.958-5.525v-.85h-41.65A6.51,6.51,0,0,0,216.4,344.975Z" transform="translate(-216.4 -338.6)" fill="#1ebc70"/>
                        <path id="Path_89126" data-name="Path 89126" d="M216.9,344.725a5.532,5.532,0,0,0,5.525,5.525h41.65a5.434,5.434,0,0,1-4.958-5.525,5.534,5.534,0,0,1,4.958-5.525h-41.65A5.725,5.725,0,0,0,216.9,344.725Z" transform="translate(-216.192 -338.35)" fill="#fcfcd4"/>
                      </g>
                      <g id="Group_175245" data-name="Group 175245" transform="translate(2.975 0)">
                        <g id="Group_175244" data-name="Group 175244">
                          <path id="Path_89127" data-name="Path 89127" d="M212.4,336.317a6.2,6.2,0,0,0,6.233,6.233h41.65v-.85a5.434,5.434,0,0,1-4.958-5.525,5.534,5.534,0,0,1,4.958-5.525v-.85h-41.65A6.54,6.54,0,0,0,212.4,336.317Z" transform="translate(-212.4 -329.8)" fill="#398ccf"/>
                        </g>
                        <path id="Path_89128" data-name="Path 89128" d="M213,336.025a5.532,5.532,0,0,0,5.525,5.525h41.65a5.435,5.435,0,0,1-4.958-5.525,5.534,5.534,0,0,1,4.958-5.525h-41.65A5.444,5.444,0,0,0,213,336.025Z" transform="translate(-212.15 -329.508)" fill="#fcfcd4"/>
                      </g>
                    </g>
                    <g id="Group_175248" data-name="Group 175248" transform="translate(263.308 60.331)">
                      <path id="Path_89129" data-name="Path 89129" d="M295.685,266.4c-.485,1.334-2.3,8.365.364,8.971,2.788.727,4,.849,7.88-1.212S312.9,246.4,312.9,246.4s-5.577.727-9.092,3.879C300.413,253.553,296.17,265.191,295.685,266.4Z" transform="translate(-293.422 -222.144)" fill="#14035b"/>
                      <g id="Group_175247" data-name="Group 175247" transform="translate(1.049 73.108)">
                        <path id="Path_89130" data-name="Path 89130" d="M315.595,365.162a33.75,33.75,0,0,0-.849-6.062h-6.062s-10.062,4.122-11.881,4.728-2.061,2.182-2.3,3.273c-.121.97,7.4,1.94,8.729,1.7,1.455-.243,3.273-1.455,3.516-1.334.364.121.727.97.727.97s7.274,0,7.759-.242C315.958,367.95,315.595,366.738,315.595,365.162Z" transform="translate(-294.499 -271.322)" fill="#0e0e30"/>
                        <path id="Path_89131" data-name="Path 89131" d="M329.074,366.562a33.745,33.745,0,0,0-.849-6.062h-6.062s-10.062,4.122-11.881,4.728-2.061,2.182-2.182,3.273c-.121.97,7.4,1.94,8.729,1.7,1.455-.243,3.273-1.455,3.516-1.334.364.121.727.97.727.97s7.274,0,7.759-.242C329.437,369.35,328.952,368.138,329.074,366.562Z" transform="translate(-291.611 -271.024)" fill="#0e0e30"/>
                        <path id="Path_89132" data-name="Path 89132" d="M327.914,330.224c.242-5.577,2.3-37.34,1.94-41.219s-27.035-1.7-27.035-1.7-4.607,36.249-5.213,45.463,7.274,42.674,8,42.917,9.214-.121,9.214-.97-6.3-36.249-5.819-40.007c.606-3.758,5.94-32.248,5.94-32.248s1.7,29.217,1.576,31.278,3.516,43.4,4.486,43.644,9.82,0,10.062-.606S327.672,335.922,327.914,330.224Z" transform="translate(-293.846 -286.695)" fill="url(#linear-gradient-14)"/>
                        <path id="Path_89133" data-name="Path 89133" d="M313.835,301.255c.121-.606.121-1.091.242-1.455a7.1,7.1,0,0,0-4.607,5.213c-.849,4-2.667,21.337-4,23.883s-5.213,3.516-4.243,4.971,2.667.606,4,5.819c1.334,5.334,5.456,24.974,4.728,28.126-.364,1.819-2.061,3.758-3.031,5.334,2.788,0,7.032-.364,7.032-1.091,0-.849-6.3-36.249-5.819-40.007C308.743,328.775,312.744,307.074,313.835,301.255Z" transform="translate(-293.103 -283.913)" fill="#18409d"/>
                        <path id="Path_89134" data-name="Path 89134" d="M327.165,330.224c.242-5.577,2.3-37.34,1.94-41.219s-27.035-1.7-27.035-1.7-.364,3.152-.97,7.88c2.061,1.576,4.728,3.152,7.517,3.152,5.94,0,13.7-2.182,14.79,3.879s-1.7,26.065-.849,34.43c.97,8.365,4.122,32.248,3.879,36.249-.242,2.667-3.152,3.637-3.758,4.728,2.91,0,7.516-.243,7.638-.727C330.438,376.292,326.923,335.922,327.165,330.224Z" transform="translate(-293.097 -286.695)" fill="#18409d"/>
                      </g>
                      <path id="Path_89135" data-name="Path 89135" d="M321.531,245.965c-4.122-.97-8.244.121-11.4,1.455a10.738,10.738,0,0,0-6.3,8.365c-.242,2.061-.606,4.849-1.212,8.123-1.455,8.608-1.818,34.673-1.818,34.673s-.121,2.546,11.275,3.758,18.549-2.061,18.549-2.061-.243-19.64.97-30.308C333.169,255.664,330.26,248.026,321.531,245.965Z" transform="translate(-292.112 -222.315)" fill="url(#linear-gradient-15)"/>
                      <path id="Path_89136" data-name="Path 89136" d="M317.34,245.911a12.418,12.418,0,0,0-6.789,1.212s-2.3,1.212-2.546,2.788,1.091,2.788,3.637,2.788c2.425.121,4.122.121,6.062-1.091s3.152-3.637,3.031-4.364C320.492,246.638,319.886,246.153,317.34,245.911Z" transform="translate(-290.588 -222.261)" fill="#230482"/>
                      <path id="Path_89137" data-name="Path 89137" d="M301.934,253.7a3.581,3.581,0,0,0-3.637,2.425c-.485,1.576-1.7,5.092-1.7,5.092a31.249,31.249,0,0,0,4,1.212,16.607,16.607,0,0,0,.849-2.91c.121-.364.485-.364,1.576-.849a1.58,1.58,0,0,0,1.091-1.576s1.334.606,2.061.242C306.662,256.973,303.51,253.7,301.934,253.7Z" transform="translate(-293.004 -220.594)" fill="#ffc2a9"/>
                      <path id="Path_89138" data-name="Path 89138" d="M297.351,258.8a16.044,16.044,0,0,0-3.516,7.153c-.97,4.486,1.7,8.123,5.092,7.031s3.758-11.881,3.152-12.366C301.594,260.134,297.351,258.8,297.351,258.8Z" transform="translate(-293.634 -219.511)" fill="url(#linear-gradient-16)"/>
                      <path id="Path_89139" data-name="Path 89139" d="M305.008,253.431a.944.944,0,0,0-1.091-.727l-4.486.97a.944.944,0,0,0-.727,1.091l2.061,9.456a.944.944,0,0,0,1.091.727l4.486-.97a.944.944,0,0,0,.727-1.091Z" transform="translate(-292.562 -220.81)" fill="#0e0e30"/>
                      <path id="Path_89140" data-name="Path 89140" d="M308.292,261.492c-.849-1.576-1.212-5.213-1.94-5.092s0,3.516-.364,3.758-2.3-.364-3.637-1.334-2.788-2.91-2.91-2.061c-.121.727,1.212,2.425,1.455,2.788l.121.121-.121-.121c-.242-.364-1.333-1.455-1.455-.849-.243.727,1.212,2.3,1.212,2.3s-1.455-1.212-1.455-.606c0,.727,1.212,2.061,1.212,2.061s-.849-.849-.849-.243.727,1.7,2.667,2.546c2.061.849,4.122.242,5.334.97a13.94,13.94,0,0,0,2.425,1.455,24.805,24.805,0,0,0,1.455-3.273A6.685,6.685,0,0,1,308.292,261.492Z" transform="translate(-292.452 -220.021)" fill="#ffc2a9"/>
                      <path id="Path_89141" data-name="Path 89141" d="M300.7,259Z" transform="translate(-292.133 -219.468)" fill="#ffc2a9"/>
                      <path id="Path_89142" data-name="Path 89142" d="M320.057,245.8c-2.182.97,1.091,4.243,2.3,10.669.97,4.971,2.788,12.245.243,12.73s-13.336-4.364-13.336-4.364l-2.667,5.092s17.458,10.79,20.973,9.456,5.334-17.336,4.122-23.883C330,246.649,320.057,245.8,320.057,245.8Z" transform="translate(-290.881 -222.271)" fill="url(#linear-gradient-17)"/>
                      <path id="Path_89143" data-name="Path 89143" d="M320.014,245.8a.768.768,0,0,0-.606.727c2.546.97,7.274,3.152,8.486,5.94,1.576,3.879,1.576,12.487,1.212,17.821-.364,5.213-2.788,5.819-8.244,4.243a91.638,91.638,0,0,1-13.457-5.7l-.606,1.212s17.458,10.79,20.973,9.456,5.334-17.336,4.122-23.883C329.956,246.649,320.014,245.8,320.014,245.8Z" transform="translate(-290.838 -222.271)" fill="#143174"/>
                      <path id="Path_89144" data-name="Path 89144" d="M315.737,240.6l-3.637,3.637s.485,2.3-.364,3.637c-.849,1.212-3.758,2.425-2.91,3.879s6.062,1.94,8,.364,3.758-3.031,2.91-4A26.373,26.373,0,0,1,315.737,240.6Z" transform="translate(-290.44 -223.375)" fill="#efab92"/>
                      <path id="Path_89145" data-name="Path 89145" d="M316.51,240.6l-4.486,3.637s.485,2.3-.364,3.637a10.454,10.454,0,0,1-2.061,1.818,6.2,6.2,0,0,0,3.516.485c2.546-.485,3.152.485,3.758,1.818,1.818-1.455,3.516-2.788,2.91-3.879A37.939,37.939,0,0,1,316.51,240.6Z" transform="translate(-290.244 -223.375)" fill="#ef9d84"/>
                      <path id="Path_89146" data-name="Path 89146" d="M308.6,229.972a7.255,7.255,0,0,0-5.7,6.91s.121,3.273.97,4.364a7.326,7.326,0,0,1,1.7,3.152,11.523,11.523,0,0,0,5.577,7.4c3.88,1.819,6.91-4.486,7.88-6.91.849-2.546.485-8.729-.97-11.638C316.721,230.336,313.084,228.76,308.6,229.972Z" transform="translate(-291.666 -225.719)" fill="#efab92"/>
                      <path id="Path_89147" data-name="Path 89147" d="M308.6,229.972a7.255,7.255,0,0,0-5.7,6.91,14.083,14.083,0,0,0,.242,2.425c2.3-.727,6.062-1.7,7.274-.485,1.818,1.818,1.576,4,2.667,4.364.97.485,2.546,1.091,2.788,2.91a5.652,5.652,0,0,1-3.879,5.94c3.516.849,6.3-4.849,7.153-7.153.849-2.546.485-8.729-.97-11.638S313.084,228.76,308.6,229.972Z" transform="translate(-291.666 -225.719)" fill="#efab92"/>
                      <path id="Path_89148" data-name="Path 89148" d="M319.457,230.524s-1.818-4.364-6.3-4.122c-4.486.364-9.82,4.607-11.76,4.486s-3.758-.606-3.273.606c.364,1.212,1.334,1.576,1.212,1.94-.242.364-1.94-.242-1.091,1.091a3.917,3.917,0,0,0,1.94,1.576,1.56,1.56,0,0,0-.364,1.455c.243.727.485,1.576,2.91,1.212a25.8,25.8,0,0,0,8.486-2.546s1.334,2.182,3.273,2.546,1.94,2.91,2.425,2.182.364-4,1.819-3.031.97,4,.364,4.607c0,0,1.212,1.819,2.3,1.091s1.334-6.183.849-8.85A9.554,9.554,0,0,0,319.457,230.524Z" transform="translate(-292.706 -226.392)" fill="#0e0e30"/>
                    </g>
                    <g id="Group_175249" data-name="Group 175249" transform="translate(158.901 100.199)">
                      <path id="Path_89149" data-name="Path 89149" d="M285.85,360.336c-4.958-.708-5.808-.283-6.517-2.125-.708-1.983-9.633-.567-9.633-.567a35.6,35.6,0,0,0-.992,6.092c-.142,2.833.283,3.683.283,3.683a58.943,58.943,0,0,0,14.733.425c7.367-.708,9.067-.708,9.35-1.275a2.564,2.564,0,0,0-.142-2.267C292.367,363.594,290.95,361.044,285.85,360.336Z" transform="translate(-202.074 -234.394)" fill="#0e0e30"/>
                      <path id="Path_89150" data-name="Path 89150" d="M248.378,290.5c-4.958.142-6.092,2.55-6.375,7.933a118.417,118.417,0,0,0,1.133,14.592l10.625-1.133a122.542,122.542,0,0,0-.85-14.025C252.345,291.775,248.378,290.5,248.378,290.5Z" transform="translate(-213.194 -262.166)" fill="#143174"/>
                      <path id="Path_89151" data-name="Path 89151" d="M252.225,318.895c-6.092-1.417-16.717-1.275-20.4,7.792-3.542,9.067,6.092,9.917,10.767,11.192s29.184,1.275,31.309,1.417,3.117,8.5,4.958,13.317,5.525,23.233,5.525,23.233l10.767-1.275c.85-3.825-4.25-47.458-7.65-50.433C284.384,321.445,252.225,318.895,252.225,318.895Z" transform="translate(-217.749 -250.611)" fill="#2d518a"/>
                      <path id="Path_89152" data-name="Path 89152" d="M249.417,318.9a23.1,23.1,0,0,0-11.617.142c1.842.708,4.958,1.275,10.908.992,0,0,25.358,1.7,28.758,4.25s6.092,7.65,6.8,14.167c.567,5.242,4.392,30.458,4.817,36.692l3.4-.283c.85-3.825-1.7-44.909-7.65-50.433C278.175,318.049,249.417,318.9,249.417,318.9Z" transform="translate(-214.94 -250.615)" fill="#2d518a"/>
                      <path id="Path_89153" data-name="Path 89153" d="M264.419,365.646c-4.958-1.275-6.092-1.558-6.658-3.542s-9.492-1.7-9.492-1.7a31.211,31.211,0,0,0-1.7,5.808,9.937,9.937,0,0,0-.142,3.683,68.014,68.014,0,0,0,14.592,2.125c7.367,0,9.067-.283,9.35-.992s.567-1.133.142-1.7C270.086,368.621,269.377,366.921,264.419,365.646Z" transform="translate(-211.384 -233.045)" fill="#0e0e30"/>
                      <path id="Path_89154" data-name="Path 89154" d="M232.646,319.8a5.942,5.942,0,0,0-4.958,2.692c-2.267,3.117-4.675,8.5,0,11.758,7.225,4.817,35.842,3.4,36.125,5.1s-7.933,39.667-7.933,39.667,8.642,1.558,10.625.85,15.725-44.342,13.6-52.559C278.546,320.367,243.129,319.8,232.646,319.8Z" transform="translate(-220.27 -249.958)" fill="#2d518a"/>
                      <path id="Path_89155" data-name="Path 89155" d="M279.133,326.575l-.142-.142c-.142-.142-.142-.283-.283-.425l-.283-.283c-.142-.142-.283-.283-.425-.283-.142-.142-.283-.142-.425-.283s-.283-.142-.425-.283-.283-.142-.425-.283-.283-.142-.567-.283c-.142-.142-.283-.142-.567-.283-.142-.142-.425-.142-.567-.283-.142,0-.425-.142-.567-.142-.283-.142-.425-.142-.708-.283a6.138,6.138,0,0,0-.708-.142c-.283,0-.425-.142-.708-.142s-.425-.142-.708-.142-.425-.142-.708-.142a6.132,6.132,0,0,1-.708-.142c-.283,0-.567-.142-.85-.142s-.567-.142-.85-.142-.567-.142-.85-.142-.567-.142-.85-.142-.567-.142-.85-.142-.567-.142-.85-.142-.567-.142-.85-.142-.567-.142-.85-.142-.567-.142-.992-.142c-.283,0-.567-.142-.992-.142-.283,0-.708-.142-.992-.142a2.766,2.766,0,0,1-.992-.142,21135.418,21135.418,0,0,0-1.983-.283,15852.55,15852.55,0,0,1-2.975-.425H231.675A5.978,5.978,0,0,0,227,322.466c.567,1.983,1.275,2.55,7.65,4.25,9.775,2.408,26.35,3.825,30.317,3.967s7.225,2.267,8.075,7.508c.708,5.1-2.692,19.975-3.967,24.792s-4.25,12.892-8.925,14.308a12.825,12.825,0,0,1-4.675.708c-.142.992-.283,1.558-.283,1.558s.85.142,2.125.283c.425,0,.85.142,1.417.142h.283c.567,0,.992.142,1.558.142h.142a14.878,14.878,0,0,0,5.1,0c1.417-.425,8.358-21.25,11.758-36.834l.425-2.125a66.9,66.9,0,0,0,1.417-8.925,14.744,14.744,0,0,0-.142-4.533C279.417,327,279.275,326.717,279.133,326.575Z" transform="translate(-219.44 -249.791)" fill="#2d518a"/>
                      <path id="Path_89156" data-name="Path 89156" d="M258.478,295.233c-2.55-6.092-6.658-7.225-13.6-7.933,0,0-7.65.142-12.608,5.808-4.817,5.667-9.067,33.575-9.067,39.1s-.425,13.317,4.533,15.158-1.7-8.358,29.183-15.725c0,0-4.533-9.35-2.267-17.85C256.636,306.85,260.886,301.183,258.478,295.233Z" transform="translate(-221.026 -263.5)" fill="#18409d"/>
                      <path id="Path_89157" data-name="Path 89157" d="M246.826,285.067c-.425-.425-5.95-2.267-5.95-2.267s-.992,4.675-2.267,6.375c-1.275,1.558-2.692,3.117-.85,4.958s7.65,3.825,8.5,2.125-1.133-3.258-1.275-5.808S247.251,285.35,246.826,285.067Z" transform="translate(-215.325 -265.375)" fill="#e29d88"/>
                      <path id="Path_89158" data-name="Path 89158" d="M254.15,275.681c-4.533-2.267-8.925-1.417-11.05,1.417-2.125,2.692-4.108,9.35-3.683,12.325s2.267,10.483,6.942,9.35,7.225-5.525,7.792-6.658a8.435,8.435,0,0,1,2.55-2.975c1.133-.992,1.983-4.533,1.983-4.533A7.822,7.822,0,0,0,254.15,275.681Z" transform="translate(-214.291 -268.881)" fill="#efab92"/>
                      <path id="Path_89159" data-name="Path 89159" d="M254.15,275.681c-4.533-2.267-8.925-1.417-11.05,1.417-2.125,2.692-4.108,9.35-3.683,12.325.425,2.692,2.125,9.492,6.092,9.35a6.326,6.326,0,0,1-2.833-7.367c.708-1.983,2.408-2.267,3.683-2.55s1.558-2.55,3.825-4.108c1.558-.992,5.383.85,7.792,2.125a15.264,15.264,0,0,0,.85-2.55A7.93,7.93,0,0,0,254.15,275.681Z" transform="translate(-214.291 -268.881)" fill="#efab92"/>
                      <path id="Path_89160" data-name="Path 89160" d="M257.969,275.883c-2.125-1.7-4.533-3.4-7.083-3.117v-1.983a3.149,3.149,0,0,0-1.842,1.133,3.575,3.575,0,0,0-2.125-1.417,9.84,9.84,0,0,1,.708,1.842c-1.983-.567-3.117.708-4.392,1.983-1.133,1.275-2.267,2.125-2.975,3.683-1.275,2.975-2.125,9.208-1.133,10.342s2.833-.708,2.833-.708c-.425-.85-.425-4.392,1.558-5.242s.85,2.975,1.417,3.825.992-1.983,3.258-1.983,4.392-2.125,4.392-2.125c.142-.142,2.975,2.408,3.258,2.55a6.578,6.578,0,0,0,4.108,1.417,10.631,10.631,0,0,0,3.542-1.275,9.305,9.305,0,0,1-1.7-2.408,3.676,3.676,0,0,0,3.542-3.4C262.361,279.283,260.094,277.583,257.969,275.883Z" transform="translate(-214.568 -270.5)" fill="#0e0e30"/>
                      <path id="Path_89161" data-name="Path 89161" d="M232.8,323.467l22.242,3.4,24.508-7.65.283-1.417L232.8,322.333Z" transform="translate(-217.024 -250.791)" fill="#617375"/>
                      <path id="Path_89162" data-name="Path 89162" d="M232.8,322.917l22.1,2.975s24.083-7.225,24.65-7.225-21.108-2.267-21.108-2.267Z" transform="translate(-217.024 -251.375)" fill="#889ca0"/>
                      <path id="Path_89163" data-name="Path 89163" d="M238.1,322.033l14.45,1.983c8.217-2.408,13.6-4.108,17.283-5.1-4.108-.425-9.35-.992-13.6-1.417Z" transform="translate(-214.815 -250.916)" fill="#617375"/>
                      <path id="Path_89164" data-name="Path 89164" d="M259.142,317.075c-1.7-.283-6.233-5.383-6.8-6.375-.425-.992-.425-5.1-.425-5.1l-6.517.567s0,6.092.567,8.075,9.35,4.675,10.342,4.958,0,1.7.85,2.408c.85.567.992-.992,1.417-1.558s1.133,1.558,1.983,2.408,2.833.567,3.825,0c.85-.567.425-2.692-.142-3.825S260.842,317.358,259.142,317.075Z" transform="translate(-211.774 -255.875)" fill="#ffc2a9"/>
                      <path id="Path_89165" data-name="Path 89165" d="M250.883,313.45c-2.692-2.125-2.833-5.242-2.408-7.65l-2.975.283s0,6.092.567,8.075,9.35,4.675,10.342,4.958,0,1.7.85,2.408c.85.567.992-.992,1.417-1.558s1.133,1.558,1.983,2.408,2.833.567,3.825,0c.567-.425.567-1.7.283-2.692C260.517,318.125,254,315.858,250.883,313.45Z" transform="translate(-211.732 -255.791)" fill="#efab92"/>
                      <path id="Path_89166" data-name="Path 89166" d="M250.857,317.675c-2.408-.567-20.542-6.092-21.108-7.508-.567-1.558,2.55-5.383,2.55-5.383l-8.075-1.983s-3.542,7.367-2.125,11.05c1.275,3.683,13.033,4.958,22.242,6.092l4.533,1.133a5.352,5.352,0,0,0,3.117,2.55c2.125.567,3.825.283,4.675.992.992.708,1.983,2.55,2.55,1.983a10.1,10.1,0,0,0,1.133-6.375C259.923,317.958,253.265,318.242,250.857,317.675Z" transform="translate(-221.622 -257.041)" fill="#ffc2a9"/>
                      <path id="Path_89167" data-name="Path 89167" d="M252.173,320.508c-.85-1.558-20.967-5.242-25.5-7.083-3.4-1.417-1.417-7.367-.425-10.058l-2.125-.567s-3.542,7.367-2.125,11.05c1.275,3.683,13.033,4.958,22.242,6.092l4.533,1.133a5.352,5.352,0,0,0,3.117,2.55c2.125.567,3.825.283,4.675.992.992.708,1.983,2.55,2.55,1.983a9.979,9.979,0,0,0,1.133-3.542C257.982,322.208,252.74,321.783,252.173,320.508Z" transform="translate(-221.664 -257.041)" fill="#efab92"/>
                      <path id="Path_89168" data-name="Path 89168" d="M236.425,289.4c-8.217.567-14.025,19.267-14.025,19.267l10.2,4.25s8.642-11.617,8.642-17.425C241.242,289.542,236.425,289.4,236.425,289.4Z" transform="translate(-221.357 -262.625)" fill="#143174"/>
                      <path id="Path_89169" data-name="Path 89169" d="M281.55,302.606l-23.517,5.808a2.128,2.128,0,0,0-1.7,1.558L248.4,331.79l24.792-7.508,9.208-20.258C282.967,303.031,282.4,302.465,281.55,302.606Z" transform="translate(-210.524 -257.131)" fill="#617375"/>
                      <path id="Path_89170" data-name="Path 89170" d="M281.95,303.008l-23.517,5.808a2.128,2.128,0,0,0-1.7,1.558L248.8,332.192l24.792-7.508,8.783-20.967C282.517,303.291,282.233,302.866,281.95,303.008Z" transform="translate(-210.357 -256.966)" fill="#889ca0"/>
                    </g>
                  </g>
                  <path id="Path_89171" data-name="Path 89171" d="M480.416,363.6H115.447a3.32,3.32,0,0,0-3.347,3.357v4.835a3.32,3.32,0,0,0,3.347,3.357H480.416a3.32,3.32,0,0,0,3.347-3.357v-4.835A3.32,3.32,0,0,0,480.416,363.6Z" transform="translate(-100.536 -131.14)" fill="url(#linear-gradient-18)"/>
                </g>
              </g>
            </g>
          </g>
        </g>
      </g>
    </g>
  </g>
</svg>
